<svg width="1600" height="900" viewBox="0 0 1600 900" fill="none" xmlns="http://www.w3.org/2000/svg">
  <defs>
    <radialGradient id="bgGlow" cx="50%" cy="48%" r="55%">
      <stop offset="0%" stop-color="#1a0d2e"/>
      <stop offset="100%" stop-color="#08050f"/>
    </radialGradient>
    <radialGradient id="purpleGlow" cx="50%" cy="50%" r="50%">
      <stop offset="0%" stop-color="#7734be" stop-opacity="0.30"/>
      <stop offset="50%" stop-color="#7734be" stop-opacity="0.06"/>
      <stop offset="100%" stop-color="#7734be" stop-opacity="0"/>
    </radialGradient>
    <filter id="gl">
      <feGaussianBlur stdDeviation="4" result="b"/>
      <feMerge><feMergeNode in="b"/><feMergeNode in="SourceGraphic"/></feMerge>
    </filter>
    <filter id="gl2">
      <feGaussianBlur stdDeviation="2.5" result="b"/>
      <feMerge><feMergeNode in="b"/><feMergeNode in="SourceGraphic"/></feMerge>
    </filter>
    <filter id="bgGl">
      <feGaussianBlur stdDeviation="45" result="b"/>
      <feMerge><feMergeNode in="b"/><feMergeNode in="SourceGraphic"/></feMerge>
    </filter>
    <!-- Glow filters for the "1" outline -->
    <filter id="outlineGlow1">
      <feGaussianBlur stdDeviation="12" result="b"/>
      <feMerge><feMergeNode in="b"/><feMergeNode in="SourceGraphic"/></feMerge>
    </filter>
    <filter id="outlineGlow2">
      <feGaussianBlur stdDeviation="6" result="b"/>
      <feMerge><feMergeNode in="b"/><feMergeNode in="SourceGraphic"/></feMerge>
    </filter>
    <filter id="outlineGlow3">
      <feGaussianBlur stdDeviation="25" result="b"/>
      <feMerge><feMergeNode in="b"/><feMergeNode in="SourceGraphic"/></feMerge>
    </filter>

    <!-- Agentgateway logo icon -->
    <symbol id="agwIcon" viewBox="357 251 486 562">
      <circle cx="600" cy="321" r="70"/>
      <circle cx="600" cy="532" r="70"/>
      <path d="M640 426 C640 401 647 377 660 357 L600 321 L540 357 C552 377 559 401 559 426 C559 452 552 475 540 495 L600 532 L660 495 C647 475 640 452 640 426Z"/>
      <circle cx="772" cy="426" r="70"/>
      <circle cx="772" cy="638" r="70"/>
      <path d="M812 532 C812 507 820 483 832 463 L772 426 L712 463 C725 483 732 507 732 532 C732 558 725 581 712 601 L772 638 L832 601 C820 581 812 558 812 532Z"/>
      <circle cx="427" cy="426" r="70"/>
      <circle cx="427" cy="638" r="70"/>
      <path d="M467 532 C467 507 474 483 487 463 L427 426 L367 463 C379 483 387 507 387 532 C387 558 379 581 367 601 L427 638 L487 601 C474 581 467 558 467 532Z"/>
      <circle cx="600" cy="743" r="70"/>
    </symbol>

    <!-- The "1" shape path (reusable) -->
    <clipPath id="oneClip">
      <path d="M 865 120 L 640 290 L 735 290 L 735 688 L 595 688 L 595 778 L 1005 778 L 1005 688 L 865 688 Z"/>
    </clipPath>
  </defs>

  <!-- Background -->
  <rect width="1600" height="900" fill="url(#bgGlow)"/>

  <!-- Subtle grid -->
  <g opacity="0.02" stroke="#9333ea" stroke-width="0.5">
    <line x1="0" y1="100" x2="1600" y2="100"/><line x1="0" y1="200" x2="1600" y2="200"/>
    <line x1="0" y1="300" x2="1600" y2="300"/><line x1="0" y1="400" x2="1600" y2="400"/>
    <line x1="0" y1="500" x2="1600" y2="500"/><line x1="0" y1="600" x2="1600" y2="600"/>
    <line x1="0" y1="700" x2="1600" y2="700"/><line x1="0" y1="800" x2="1600" y2="800"/>
    <line x1="200" y1="0" x2="200" y2="900"/><line x1="400" y1="0" x2="400" y2="900"/>
    <line x1="600" y1="0" x2="600" y2="900"/><line x1="800" y1="0" x2="800" y2="900"/>
    <line x1="1000" y1="0" x2="1000" y2="900"/><line x1="1200" y1="0" x2="1200" y2="900"/>
    <line x1="1400" y1="0" x2="1400" y2="900"/>
  </g>

  <!-- Background glow -->
  <ellipse cx="800" cy="440" rx="400" ry="360" fill="url(#purpleGlow)" filter="url(#bgGl)"/>

  <!-- ========== GLOWING "1" OUTLINE ========== -->
  <!-- Layer 1: wide soft glow -->
  <path d="M 865 120 L 640 290 L 735 290 L 735 688 L 595 688 L 595 778 L 1005 778 L 1005 688 L 865 688 Z"
    fill="none" stroke="#7734be" stroke-width="6" stroke-opacity="0.3" filter="url(#outlineGlow3)"/>
  <!-- Layer 2: medium glow -->
  <path d="M 865 120 L 640 290 L 735 290 L 735 688 L 595 688 L 595 778 L 1005 778 L 1005 688 L 865 688 Z"
    fill="none" stroke="#9333ea" stroke-width="3" stroke-opacity="0.5" filter="url(#outlineGlow1)"/>
  <!-- Layer 3: crisp bright line -->
  <path d="M 865 120 L 640 290 L 735 290 L 735 688 L 595 688 L 595 778 L 1005 778 L 1005 688 L 865 688 Z"
    fill="none" stroke="#a855f7" stroke-width="1.5" stroke-opacity="0.7" filter="url(#outlineGlow2)"/>
  <!-- Layer 4: sharp core -->
  <path d="M 865 120 L 640 290 L 735 290 L 735 688 L 595 688 L 595 778 L 1005 778 L 1005 688 L 865 688 Z"
    fill="none" stroke="#c084fc" stroke-width="1" stroke-opacity="0.6"/>
  <!-- Subtle fill -->
  <path d="M 865 120 L 640 290 L 735 290 L 735 688 L 595 688 L 595 778 L 1005 778 L 1005 688 L 865 688 Z"
    fill="#7734be" fill-opacity="0.04"/>

  <!-- ========== RANDOMLY PLACED LOGO ICONS ========== -->
  <g clip-path="url(#oneClip)">
    <use href="#agwIcon" x="803.7" y="496.6" width="36" height="42" fill="#8023C3" opacity="0.7"/>
    <use href="#agwIcon" x="782.2" y="644.3" width="36" height="42" fill="#7734be" opacity="0.6" filter="url(#gl2)"/>
    <use href="#agwIcon" x="605.6" y="709.6" width="36" height="42" fill="#7734be" opacity="0.7"/>
    <use href="#agwIcon" x="794.7" y="246.3" width="36" height="42" fill="#c084fc" opacity="0.65"/>
    <use href="#agwIcon" x="758.7" y="553.8" width="36" height="42" fill="#7734be" opacity="0.75"/>
    <use href="#agwIcon" x="796.2" y="185.6" width="36" height="42" fill="#a855f7" opacity="0.7"/>
    <use href="#agwIcon" x="910.3" y="720.0" width="36" height="42" fill="#8023C3" opacity="0.6"/>
    <use href="#agwIcon" x="728.9" y="729.4" width="36" height="42" fill="#9333ea" opacity="0.9"/>
    <use href="#agwIcon" x="741.0" y="413.2" width="36" height="42" fill="#7734be" opacity="0.85"/>
    <use href="#agwIcon" x="827.5" y="301.7" width="36" height="42" fill="#9333ea" opacity="0.65"/>
    <use href="#agwIcon" x="656.8" y="706.0" width="36" height="42" fill="#8023C3" opacity="0.75"/>
    <use href="#agwIcon" x="783.6" y="366.7" width="36" height="42" fill="#c084fc" opacity="0.75"/>
    <use href="#agwIcon" x="831.8" y="628.2" width="36" height="42" fill="#8023C3" opacity="0.6" filter="url(#gl2)"/>
    <use href="#agwIcon" x="811.0" y="698.9" width="36" height="42" fill="#c084fc" opacity="0.8"/>
    <use href="#agwIcon" x="762.2" y="306.3" width="36" height="42" fill="#8023C3" opacity="0.7"/>
    <use href="#agwIcon" x="825.7" y="545.8" width="36" height="42" fill="#a855f7" opacity="0.6"/>
    <use href="#agwIcon" x="739.3" y="654.3" width="36" height="42" fill="#c084fc" opacity="0.65"/>
    <use href="#agwIcon" x="815.1" y="434.0" width="36" height="42" fill="#c084fc" opacity="0.75"/>
    <use href="#agwIcon" x="823.5" y="381.4" width="36" height="42" fill="#8023C3" opacity="0.6"/>
    <use href="#agwIcon" x="748.0" y="235.4" width="36" height="42" fill="#8023C3" opacity="0.6"/>
    <use href="#agwIcon" x="854.9" y="712.9" width="36" height="42" fill="#8023C3" opacity="0.85"/>
    <use href="#agwIcon" x="737.3" y="364.8" width="36" height="42" fill="#9333ea" opacity="0.7"/>
    <use href="#agwIcon" x="955.4" y="705.1" width="36" height="42" fill="#a855f7" opacity="0.7" filter="url(#gl2)"/>
    <use href="#agwIcon" x="745.7" y="504.8" width="36" height="42" fill="#9333ea" opacity="0.6"/>
    <use href="#agwIcon" x="738.1" y="602.4" width="36" height="42" fill="#a855f7" opacity="0.8"/>
    <use href="#agwIcon" x="695.6" y="247.0" width="36" height="42" fill="#7734be" opacity="0.75"/>
    <use href="#agwIcon" x="769.1" y="712.2" width="36" height="42" fill="#a855f7" opacity="0.9"/>
    <use href="#agwIcon" x="753.0" y="459.8" width="36" height="42" fill="#c084fc" opacity="0.9"/>
  </g>

  <!-- ========== CONFETTI ========== -->
  <!-- Glowing sparkle dots — top-left -->
  <circle cx="55" cy="65" r="3" fill="#c084fc" opacity="0.6" filter="url(#gl)"/>
  <circle cx="140" cy="40" r="2.5" fill="#d8b4fe" opacity="0.55"/>
  <circle cx="95" cy="130" r="3.5" fill="#a855f7" opacity="0.65" filter="url(#gl)"/>
  <circle cx="220" cy="80" r="2" fill="#e9d5ff" opacity="0.5"/>
  <circle cx="310" cy="55" r="3" fill="#c084fc" opacity="0.5"/>
  <circle cx="180" cy="160" r="4" fill="#d8b4fe" opacity="0.6" filter="url(#gl)"/>
  <circle cx="350" cy="130" r="2.5" fill="#a855f7" opacity="0.5"/>
  <circle cx="260" cy="190" r="3" fill="#7734be" opacity="0.45"/>
  <circle cx="420" cy="90" r="2" fill="#c084fc" opacity="0.45"/>
  <circle cx="480" cy="160" r="3.5" fill="#e9d5ff" opacity="0.5" filter="url(#gl)"/>
  <circle cx="140" cy="260" r="2.5" fill="#d8b4fe" opacity="0.45"/>
  <circle cx="330" cy="270" r="3" fill="#c084fc" opacity="0.5"/>
  <circle cx="70" cy="310" r="2" fill="#a855f7" opacity="0.4"/>
  <circle cx="450" cy="250" r="2.5" fill="#7734be" opacity="0.4"/>
  <circle cx="530" cy="110" r="3" fill="#d8b4fe" opacity="0.4"/>
  <circle cx="200" cy="350" r="3.5" fill="#c084fc" opacity="0.45" filter="url(#gl)"/>
  <circle cx="560" cy="50" r="2.5" fill="#a855f7" opacity="0.4"/>
  <circle cx="400" cy="320" r="2" fill="#e9d5ff" opacity="0.35"/>
  <!-- Left mid -->
  <circle cx="80" cy="420" r="3" fill="#a855f7" opacity="0.45"/>
  <circle cx="190" cy="460" r="4" fill="#c084fc" opacity="0.5" filter="url(#gl)"/>
  <circle cx="300" cy="400" r="2.5" fill="#d8b4fe" opacity="0.45"/>
  <circle cx="130" cy="530" r="2" fill="#7734be" opacity="0.4"/>
  <circle cx="250" cy="560" r="3.5" fill="#c084fc" opacity="0.45" filter="url(#gl)"/>
  <circle cx="370" cy="490" r="2" fill="#a855f7" opacity="0.4"/>
  <circle cx="70" cy="590" r="3" fill="#d8b4fe" opacity="0.4"/>
  <circle cx="220" cy="640" r="2.5" fill="#c084fc" opacity="0.4"/>
  <circle cx="340" cy="580" r="3" fill="#e9d5ff" opacity="0.35"/>
  <circle cx="430" cy="530" r="2" fill="#7734be" opacity="0.35"/>
  <circle cx="480" cy="410" r="3" fill="#d8b4fe" opacity="0.35"/>
  <circle cx="510" cy="330" r="2.5" fill="#c084fc" opacity="0.4"/>
  <!-- Left bottom -->
  <circle cx="100" cy="680" r="3.5" fill="#c084fc" opacity="0.4" filter="url(#gl)"/>
  <circle cx="260" cy="720" r="2.5" fill="#a855f7" opacity="0.4"/>
  <circle cx="160" cy="770" r="3" fill="#d8b4fe" opacity="0.4"/>
  <circle cx="350" cy="740" r="2" fill="#7734be" opacity="0.35"/>
  <circle cx="80" cy="830" r="3" fill="#c084fc" opacity="0.35"/>
  <circle cx="300" cy="810" r="2.5" fill="#e9d5ff" opacity="0.35"/>
  <circle cx="430" cy="770" r="3.5" fill="#d8b4fe" opacity="0.35" filter="url(#gl)"/>
  <circle cx="200" cy="860" r="2" fill="#a855f7" opacity="0.3"/>
  <circle cx="500" cy="830" r="3" fill="#c084fc" opacity="0.3"/>
  <circle cx="460" cy="680" r="2.5" fill="#7734be" opacity="0.35"/>
  <circle cx="530" cy="710" r="2" fill="#d8b4fe" opacity="0.3"/>
  <circle cx="380" cy="860" r="3" fill="#a855f7" opacity="0.3"/>
  <!-- Top-right -->
  <circle cx="1540" cy="55" r="3" fill="#c084fc" opacity="0.55" filter="url(#gl)"/>
  <circle cx="1420" cy="75" r="2.5" fill="#d8b4fe" opacity="0.6"/>
  <circle cx="1300" cy="50" r="3.5" fill="#a855f7" opacity="0.55" filter="url(#gl)"/>
  <circle cx="1480" cy="140" r="4" fill="#e9d5ff" opacity="0.6" filter="url(#gl)"/>
  <circle cx="1200" cy="100" r="2" fill="#c084fc" opacity="0.45"/>
  <circle cx="1360" cy="170" r="3" fill="#7734be" opacity="0.5"/>
  <circle cx="1140" cy="160" r="3.5" fill="#d8b4fe" opacity="0.45" filter="url(#gl)"/>
  <circle cx="1500" cy="230" r="2.5" fill="#a855f7" opacity="0.45"/>
  <circle cx="1270" cy="220" r="3" fill="#c084fc" opacity="0.45"/>
  <circle cx="1430" cy="290" r="2" fill="#d8b4fe" opacity="0.4"/>
  <circle cx="1180" cy="270" r="2.5" fill="#7734be" opacity="0.4"/>
  <circle cx="1340" cy="310" r="3" fill="#c084fc" opacity="0.4"/>
  <circle cx="1080" cy="190" r="2" fill="#a855f7" opacity="0.35"/>
  <circle cx="1520" cy="340" r="3.5" fill="#e9d5ff" opacity="0.4" filter="url(#gl)"/>
  <circle cx="1240" cy="350" r="2.5" fill="#d8b4fe" opacity="0.4"/>
  <circle cx="1070" cy="80" r="3" fill="#c084fc" opacity="0.4"/>
  <circle cx="1100" cy="300" r="2" fill="#a855f7" opacity="0.35"/>
  <!-- Right mid -->
  <circle cx="1420" cy="400" r="3" fill="#a855f7" opacity="0.45"/>
  <circle cx="1300" cy="470" r="3.5" fill="#c084fc" opacity="0.45" filter="url(#gl)"/>
  <circle cx="1520" cy="450" r="2.5" fill="#d8b4fe" opacity="0.45"/>
  <circle cx="1200" cy="520" r="4" fill="#7734be" opacity="0.4" filter="url(#gl)"/>
  <circle cx="1450" cy="540" r="2" fill="#c084fc" opacity="0.4"/>
  <circle cx="1350" cy="590" r="3" fill="#a855f7" opacity="0.4"/>
  <circle cx="1530" cy="580" r="2.5" fill="#e9d5ff" opacity="0.35"/>
  <circle cx="1160" cy="610" r="3" fill="#d8b4fe" opacity="0.35"/>
  <circle cx="1270" cy="560" r="2" fill="#c084fc" opacity="0.35"/>
  <circle cx="1100" cy="460" r="2.5" fill="#7734be" opacity="0.35"/>
  <circle cx="1130" cy="540" r="3" fill="#a855f7" opacity="0.35"/>
  <!-- Right bottom -->
  <circle cx="1400" cy="660" r="3.5" fill="#c084fc" opacity="0.4" filter="url(#gl)"/>
  <circle cx="1280" cy="710" r="2.5" fill="#a855f7" opacity="0.4"/>
  <circle cx="1500" cy="700" r="3" fill="#d8b4fe" opacity="0.35"/>
  <circle cx="1170" cy="740" r="2" fill="#7734be" opacity="0.35"/>
  <circle cx="1350" cy="780" r="3" fill="#c084fc" opacity="0.35"/>
  <circle cx="1460" cy="800" r="2.5" fill="#e9d5ff" opacity="0.3"/>
  <circle cx="1230" cy="820" r="3.5" fill="#d8b4fe" opacity="0.35" filter="url(#gl)"/>
  <circle cx="1530" cy="830" r="2" fill="#a855f7" opacity="0.3"/>
  <circle cx="1110" cy="790" r="3" fill="#c084fc" opacity="0.3"/>
  <circle cx="1380" cy="850" r="2.5" fill="#7734be" opacity="0.3"/>
  <circle cx="1080" cy="680" r="2" fill="#d8b4fe" opacity="0.3"/>
  <circle cx="1140" cy="860" r="3" fill="#a855f7" opacity="0.25"/>
  <!-- Near the "1" -->
  <circle cx="570" cy="200" r="3" fill="#c084fc" opacity="0.45" filter="url(#gl)"/>
  <circle cx="560" cy="380" r="2.5" fill="#a855f7" opacity="0.4"/>
  <circle cx="540" cy="550" r="2" fill="#d8b4fe" opacity="0.35"/>
  <circle cx="520" cy="700" r="3" fill="#7734be" opacity="0.4"/>
  <circle cx="600" cy="460" r="2" fill="#c084fc" opacity="0.35"/>
  <circle cx="580" cy="630" r="2.5" fill="#a855f7" opacity="0.35"/>
  <circle cx="1050" cy="250" r="2.5" fill="#c084fc" opacity="0.4"/>
  <circle cx="1060" cy="430" r="3" fill="#a855f7" opacity="0.4" filter="url(#gl)"/>
  <circle cx="1070" cy="600" r="2" fill="#d8b4fe" opacity="0.35"/>
  <circle cx="1080" cy="740" r="3.5" fill="#c084fc" opacity="0.4" filter="url(#gl)"/>
  <circle cx="1040" cy="160" r="2" fill="#7734be" opacity="0.35"/>
  <circle cx="1050" cy="530" r="2.5" fill="#d8b4fe" opacity="0.35"/>

  <!-- Confetti rectangles — left -->
  <rect x="120" y="90" width="14" height="4" rx="2" fill="#c084fc" opacity="0.55" transform="rotate(30 127 92)"/>
  <rect x="300" y="60" width="11" height="3.5" rx="1.5" fill="#a855f7" opacity="0.45" transform="rotate(-45 306 62)"/>
  <rect x="200" y="230" width="12" height="3.5" rx="1.5" fill="#d8b4fe" opacity="0.5" transform="rotate(55 206 232)"/>
  <rect x="420" y="200" width="10" height="3" rx="1.5" fill="#7734be" opacity="0.4" transform="rotate(-20 425 202)"/>
  <rect x="100" y="400" width="13" height="4" rx="2" fill="#c084fc" opacity="0.45" transform="rotate(65 107 402)"/>
  <rect x="320" y="450" width="11" height="3.5" rx="1.5" fill="#e9d5ff" opacity="0.4" transform="rotate(-35 326 452)"/>
  <rect x="170" y="580" width="12" height="3.5" rx="1.5" fill="#a855f7" opacity="0.4" transform="rotate(40 176 582)"/>
  <rect x="400" y="620" width="10" height="3" rx="1.5" fill="#d8b4fe" opacity="0.35" transform="rotate(-55 405 622)"/>
  <rect x="250" y="740" width="14" height="4" rx="2" fill="#c084fc" opacity="0.35" transform="rotate(20 257 742)"/>
  <rect x="120" y="800" width="11" height="3.5" rx="1.5" fill="#7734be" opacity="0.3" transform="rotate(-30 126 802)"/>
  <rect x="380" y="810" width="12" height="3.5" rx="1.5" fill="#e9d5ff" opacity="0.3" transform="rotate(50 386 812)"/>
  <rect x="490" y="430" width="10" height="3" rx="1.5" fill="#c084fc" opacity="0.35" transform="rotate(-15 495 432)"/>
  <rect x="60" y="720" width="13" height="4" rx="2" fill="#d8b4fe" opacity="0.35" transform="rotate(75 67 722)"/>
  <rect x="540" y="260" width="11" height="3.5" rx="1.5" fill="#a855f7" opacity="0.35" transform="rotate(42 546 262)"/>
  <rect x="450" y="680" width="12" height="3.5" rx="1.5" fill="#c084fc" opacity="0.3" transform="rotate(-38 456 682)"/>
  <rect x="70" y="170" width="10" height="3" rx="1.5" fill="#d8b4fe" opacity="0.45" transform="rotate(60 75 172)"/>
  <!-- Confetti rectangles — right -->
  <rect x="1350" y="80" width="13" height="4" rx="2" fill="#c084fc" opacity="0.5" transform="rotate(-40 1357 82)"/>
  <rect x="1500" y="160" width="11" height="3.5" rx="1.5" fill="#a855f7" opacity="0.45" transform="rotate(35 1506 162)"/>
  <rect x="1220" y="200" width="14" height="4" rx="2" fill="#d8b4fe" opacity="0.45" transform="rotate(-55 1227 202)"/>
  <rect x="1430" y="340" width="10" height="3" rx="1.5" fill="#7734be" opacity="0.4" transform="rotate(20 1435 342)"/>
  <rect x="1180" y="400" width="12" height="3.5" rx="1.5" fill="#c084fc" opacity="0.4" transform="rotate(-30 1186 402)"/>
  <rect x="1500" y="500" width="11" height="3.5" rx="1.5" fill="#e9d5ff" opacity="0.35" transform="rotate(60 1506 502)"/>
  <rect x="1300" y="550" width="13" height="4" rx="2" fill="#a855f7" opacity="0.35" transform="rotate(-45 1307 552)"/>
  <rect x="1450" y="650" width="10" height="3" rx="1.5" fill="#d8b4fe" opacity="0.35" transform="rotate(15 1455 652)"/>
  <rect x="1200" y="700" width="12" height="3.5" rx="1.5" fill="#c084fc" opacity="0.35" transform="rotate(-70 1206 702)"/>
  <rect x="1380" y="800" width="11" height="3.5" rx="1.5" fill="#7734be" opacity="0.3" transform="rotate(40 1386 802)"/>
  <rect x="1520" y="750" width="14" height="4" rx="2" fill="#e9d5ff" opacity="0.3" transform="rotate(-25 1527 752)"/>
  <rect x="1130" y="830" width="10" height="3" rx="1.5" fill="#a855f7" opacity="0.25" transform="rotate(55 1135 832)"/>
  <rect x="1100" y="300" width="12" height="3.5" rx="1.5" fill="#d8b4fe" opacity="0.35" transform="rotate(-60 1106 302)"/>
  <rect x="1070" y="490" width="11" height="3.5" rx="1.5" fill="#c084fc" opacity="0.35" transform="rotate(28 1076 492)"/>
  <rect x="1150" y="620" width="10" height="3" rx="1.5" fill="#a855f7" opacity="0.3" transform="rotate(-42 1155 622)"/>
  <rect x="1480" y="860" width="12" height="3.5" rx="1.5" fill="#d8b4fe" opacity="0.25" transform="rotate(50 1486 862)"/>
  <!-- Near "1" -->
  <rect x="560" y="300" width="12" height="3.5" rx="1.5" fill="#c084fc" opacity="0.4" transform="rotate(35 566 302)"/>
  <rect x="1060" y="350" width="11" height="3.5" rx="1.5" fill="#a855f7" opacity="0.35" transform="rotate(-40 1066 352)"/>
  <rect x="550" y="660" width="10" height="3" rx="1.5" fill="#d8b4fe" opacity="0.35" transform="rotate(25 555 662)"/>
  <rect x="1070" y="680" width="13" height="4" rx="2" fill="#7734be" opacity="0.35" transform="rotate(-50 1077 682)"/>

  <!-- Diamond confetti — left -->
  <polygon points="240,120 246,130 240,140 234,130" fill="#c084fc" opacity="0.5"/>
  <polygon points="400,160 405,168 400,176 395,168" fill="#a855f7" opacity="0.4"/>
  <polygon points="150,340 155,348 150,356 145,348" fill="#d8b4fe" opacity="0.45"/>
  <polygon points="350,370 355,378 350,386 345,378" fill="#7734be" opacity="0.4"/>
  <polygon points="280,510 285,518 280,526 275,518" fill="#c084fc" opacity="0.4"/>
  <polygon points="420,580 425,588 420,596 415,588" fill="#a855f7" opacity="0.35"/>
  <polygon points="190,670 195,678 190,686 185,678" fill="#d8b4fe" opacity="0.35"/>
  <polygon points="340,730 345,738 340,746 335,738" fill="#7734be" opacity="0.35"/>
  <polygon points="130,860 135,868 130,876 125,868" fill="#c084fc" opacity="0.3"/>
  <polygon points="460,850 465,858 460,866 455,858" fill="#e9d5ff" opacity="0.3"/>
  <polygon points="510,180 515,188 510,196 505,188" fill="#d8b4fe" opacity="0.4"/>
  <polygon points="100,520 105,528 100,536 95,528" fill="#a855f7" opacity="0.35"/>
  <polygon points="380,150 385,158 380,166 375,158" fill="#e9d5ff" opacity="0.4"/>
  <!-- Diamond confetti — right -->
  <polygon points="1320,100 1326,110 1320,120 1314,110" fill="#c084fc" opacity="0.5"/>
  <polygon points="1480,250 1485,258 1480,266 1475,258" fill="#a855f7" opacity="0.45"/>
  <polygon points="1200,300 1205,308 1200,316 1195,308" fill="#d8b4fe" opacity="0.4"/>
  <polygon points="1400,430 1405,438 1400,446 1395,438" fill="#7734be" opacity="0.4"/>
  <polygon points="1540,500 1545,508 1540,516 1535,508" fill="#c084fc" opacity="0.35"/>
  <polygon points="1250,550 1255,558 1250,566 1245,558" fill="#a855f7" opacity="0.35"/>
  <polygon points="1460,630 1465,638 1460,646 1455,638" fill="#d8b4fe" opacity="0.35"/>
  <polygon points="1330,710 1335,718 1330,726 1325,718" fill="#c084fc" opacity="0.35"/>
  <polygon points="1500,820 1505,828 1500,836 1495,828" fill="#7734be" opacity="0.3"/>
  <polygon points="1150,760 1155,768 1150,776 1145,768" fill="#e9d5ff" opacity="0.3"/>
  <polygon points="1100,170 1105,178 1100,186 1095,178" fill="#c084fc" opacity="0.4"/>
  <polygon points="1280,480 1285,488 1280,496 1275,488" fill="#d8b4fe" opacity="0.35"/>
  <polygon points="1420,850 1425,858 1420,866 1415,858" fill="#a855f7" opacity="0.25"/>
  <!-- Diamond confetti — near "1" -->
  <polygon points="575,440 580,448 575,456 570,448" fill="#c084fc" opacity="0.4"/>
  <polygon points="1045,480 1050,488 1045,496 1040,488" fill="#a855f7" opacity="0.4"/>
  <polygon points="540,600 545,608 540,616 535,608" fill="#d8b4fe" opacity="0.35"/>
  <polygon points="1060,610 1065,618 1060,626 1055,618" fill="#c084fc" opacity="0.35"/>
  <polygon points="1050,180 1055,188 1050,196 1045,188" fill="#d8b4fe" opacity="0.35"/>
  <polygon points="580,780 585,788 580,796 575,788" fill="#7734be" opacity="0.3"/>
  <polygon points="1030,780 1035,788 1030,796 1025,788" fill="#a855f7" opacity="0.3"/>

  <!-- Faint network lines -->
  <line x1="55" y1="65" x2="140" y2="40" stroke="#7734be" stroke-width="0.7" opacity="0.07"/>
  <line x1="140" y1="40" x2="220" y2="80" stroke="#7734be" stroke-width="0.7" opacity="0.06"/>
  <line x1="95" y1="130" x2="180" y2="160" stroke="#7734be" stroke-width="0.7" opacity="0.07"/>
  <line x1="310" y1="55" x2="350" y2="130" stroke="#7734be" stroke-width="0.7" opacity="0.05"/>
  <line x1="80" y1="420" x2="190" y2="460" stroke="#7734be" stroke-width="0.7" opacity="0.05"/>
  <line x1="100" y1="680" x2="160" y2="770" stroke="#7734be" stroke-width="0.7" opacity="0.04"/>
  <line x1="1540" y1="55" x2="1420" y2="75" stroke="#7734be" stroke-width="0.7" opacity="0.07"/>
  <line x1="1420" y1="75" x2="1300" y2="50" stroke="#7734be" stroke-width="0.7" opacity="0.06"/>
  <line x1="1480" y1="140" x2="1360" y2="170" stroke="#7734be" stroke-width="0.7" opacity="0.06"/>
  <line x1="1420" y1="400" x2="1300" y2="470" stroke="#7734be" stroke-width="0.7" opacity="0.05"/>
  <line x1="1350" y1="590" x2="1280" y2="710" stroke="#7734be" stroke-width="0.7" opacity="0.04"/>

  <!-- ========== TYPOGRAPHY ========== -->
  <text x="800" y="845" font-family="'Inter', 'Segoe UI', 'Helvetica Neue', Arial, sans-serif" font-weight="700" font-size="44" text-anchor="middle" fill="white" letter-spacing="4" opacity="0.95">HAPPY 1ST BIRTHDAY</text>
  <text x="800" y="882" font-family="'Inter', 'Segoe UI', 'Helvetica Neue', Arial, sans-serif" font-weight="500" font-size="19" text-anchor="middle" fill="#c084fc" letter-spacing="6" opacity="0.75">AGENTGATEWAY</text>

</svg>