<svg width="1600" height="900" viewBox="0 0 1600 900" fill="none" xmlns="http://www.w3.org/2000/svg">
  <defs>
    <!-- Background gradient -->
    <radialGradient id="bgGrad" cx="50%" cy="40%" r="65%">
      <stop offset="0%" stop-color="#2d1654"/>
      <stop offset="100%" stop-color="#0f0820"/>
    </radialGradient>
    <!-- Warm spotlight behind cake -->
    <radialGradient id="spotlight" cx="50%" cy="55%" r="40%">
      <stop offset="0%" stop-color="#7734be" stop-opacity="0.25"/>
      <stop offset="100%" stop-color="#7734be" stop-opacity="0"/>
    </radialGradient>
    <!-- Candle flame gradient -->
    <radialGradient id="flameGrad" cx="50%" cy="60%" r="50%">
      <stop offset="0%" stop-color="#fff7c0"/>
      <stop offset="40%" stop-color="#ffcc33"/>
      <stop offset="100%" stop-color="#ff8800"/>
    </radialGradient>
    <!-- Flame glow -->
    <radialGradient id="flameGlow" cx="50%" cy="50%" r="50%">
      <stop offset="0%" stop-color="#ffcc33" stop-opacity="0.5"/>
      <stop offset="100%" stop-color="#ffcc33" stop-opacity="0"/>
    </radialGradient>
    <filter id="gl">
      <feGaussianBlur stdDeviation="3" result="b"/>
      <feMerge><feMergeNode in="b"/><feMergeNode in="SourceGraphic"/></feMerge>
    </filter>
    <filter id="softGl">
      <feGaussianBlur stdDeviation="8" result="b"/>
      <feMerge><feMergeNode in="b"/><feMergeNode in="SourceGraphic"/></feMerge>
    </filter>
    <filter id="bigGl">
      <feGaussianBlur stdDeviation="20" result="b"/>
      <feMerge><feMergeNode in="b"/><feMergeNode in="SourceGraphic"/></feMerge>
    </filter>
    <filter id="shadow">
      <feDropShadow dx="0" dy="4" stdDeviation="8" flood-color="#000" flood-opacity="0.3"/>
    </filter>

    <!-- Agentgateway logo icon -->
    <symbol id="agwIcon" viewBox="357 251 486 562">
      <circle cx="600" cy="321" r="70"/>
      <circle cx="600" cy="532" r="70"/>
      <path d="M640 426 C640 401 647 377 660 357 L600 321 L540 357 C552 377 559 401 559 426 C559 452 552 475 540 495 L600 532 L660 495 C647 475 640 452 640 426Z"/>
      <circle cx="772" cy="426" r="70"/>
      <circle cx="772" cy="638" r="70"/>
      <path d="M812 532 C812 507 820 483 832 463 L772 426 L712 463 C725 483 732 507 732 532 C732 558 725 581 712 601 L772 638 L832 601 C820 581 812 558 812 532Z"/>
      <circle cx="427" cy="426" r="70"/>
      <circle cx="427" cy="638" r="70"/>
      <path d="M467 532 C467 507 474 483 487 463 L427 426 L367 463 C379 483 387 507 387 532 C387 558 379 581 367 601 L427 638 L487 601 C474 581 467 558 467 532Z"/>
      <circle cx="600" cy="743" r="70"/>
    </symbol>
  </defs>

  <!-- ========== BACKGROUND ========== -->
  <rect width="1600" height="900" fill="url(#bgGrad)"/>
  <ellipse cx="800" cy="520" rx="500" ry="400" fill="url(#spotlight)" filter="url(#bigGl)"/>

  <!-- ========== BANNER — "Happy 1st Birthday" ========== -->
  <!-- Banner ribbon -->
  <path d="M 380 55 L 360 55 L 340 90 L 360 125 L 380 125" fill="#5b21b6"/>
  <path d="M 380 55 L 1220 55 L 1220 125 L 380 125 Z" fill="#7734be"/>
  <path d="M 1220 55 L 1240 55 L 1260 90 L 1240 125 L 1220 125" fill="#5b21b6"/>
  <!-- Banner fold shadows -->
  <path d="M 380 55 L 395 55 L 395 125 L 380 125 Z" fill="#6b2aaa"/>
  <path d="M 1205 55 L 1220 55 L 1220 125 L 1205 125 Z" fill="#6b2aaa"/>
  <!-- Banner text -->
  <text x="800" y="103" font-family="'Georgia', 'Times New Roman', serif" font-weight="700" font-size="48" text-anchor="middle" fill="white" letter-spacing="2">Happy 1st Birthday!</text>

  <!-- ========== AGENTGATEWAY LOGO TEXT ========== -->
  <!-- Small logo icon -->
  <use href="#agwIcon" x="640" y="135" width="32" height="37" fill="white" opacity="0.9"/>
  <text x="818" y="172" font-family="'Inter', 'Segoe UI', Arial, sans-serif" font-weight="700" font-size="32" text-anchor="middle" fill="#c084fc" letter-spacing="1">agentgateway</text>

  <!-- ========== CAKE ========== -->
  <!-- Cake plate / stand -->
  <ellipse cx="800" cy="700" rx="320" ry="25" fill="#3b1d70" opacity="0.5"/>
  <rect x="720" y="690" width="160" height="20" rx="4" fill="#d8b4fe" opacity="0.8"/>
  <ellipse cx="800" cy="690" rx="80" ry="6" fill="#e9d5ff" opacity="0.6"/>

  <!-- Bottom tier -->
  <rect x="560" y="560" width="480" height="135" rx="16" fill="#6d28d9" filter="url(#shadow)"/>
  <!-- Bottom tier frosting top -->
  <ellipse cx="800" cy="560" rx="240" ry="18" fill="#8b5cf6"/>
  <!-- Bottom tier decorative stripe -->
  <rect x="560" y="610" width="480" height="8" rx="4" fill="#a78bfa" opacity="0.5"/>
  <!-- Bottom tier frosting drip pattern -->
  <circle cx="590" cy="565" r="12" fill="#8b5cf6"/>
  <circle cx="630" cy="568" r="14" fill="#8b5cf6"/>
  <circle cx="680" cy="566" r="11" fill="#8b5cf6"/>
  <circle cx="730" cy="570" r="15" fill="#8b5cf6"/>
  <circle cx="780" cy="567" r="12" fill="#8b5cf6"/>
  <circle cx="830" cy="569" r="14" fill="#8b5cf6"/>
  <circle cx="880" cy="566" r="11" fill="#8b5cf6"/>
  <circle cx="930" cy="568" r="13" fill="#8b5cf6"/>
  <circle cx="975" cy="565" r="12" fill="#8b5cf6"/>
  <circle cx="1010" cy="567" r="10" fill="#8b5cf6"/>

  <!-- Logo icons scattered on bottom tier -->
  <use href="#agwIcon" x="590" y="580" width="28" height="32" fill="#c084fc" opacity="0.4"/>
  <use href="#agwIcon" x="650" y="595" width="28" height="32" fill="#d8b4fe" opacity="0.35"/>
  <use href="#agwIcon" x="720" y="585" width="28" height="32" fill="#c084fc" opacity="0.4"/>
  <use href="#agwIcon" x="790" y="600" width="28" height="32" fill="#d8b4fe" opacity="0.3"/>
  <use href="#agwIcon" x="860" y="582" width="28" height="32" fill="#c084fc" opacity="0.4"/>
  <use href="#agwIcon" x="930" y="598" width="28" height="32" fill="#d8b4fe" opacity="0.35"/>
  <use href="#agwIcon" x="990" y="588" width="28" height="32" fill="#c084fc" opacity="0.3"/>

  <!-- Top tier -->
  <rect x="650" y="420" width="300" height="145" rx="14" fill="#7c3aed" filter="url(#shadow)"/>
  <!-- Top tier frosting top -->
  <ellipse cx="800" cy="420" rx="150" ry="16" fill="#a78bfa"/>
  <!-- Top tier decorative stripe -->
  <rect x="650" y="470" width="300" height="8" rx="4" fill="#c4b5fd" opacity="0.5"/>
  <!-- Top tier frosting drips -->
  <circle cx="675" cy="424" r="10" fill="#a78bfa"/>
  <circle cx="710" cy="427" r="12" fill="#a78bfa"/>
  <circle cx="750" cy="425" r="9" fill="#a78bfa"/>
  <circle cx="800" cy="428" r="13" fill="#a78bfa"/>
  <circle cx="850" cy="424" r="10" fill="#a78bfa"/>
  <circle cx="890" cy="427" r="12" fill="#a78bfa"/>
  <circle cx="925" cy="425" r="10" fill="#a78bfa"/>

  <!-- Agentgateway logo icon on front of top tier (prominent) -->
  <use href="#agwIcon" x="762" y="445" width="76" height="88" fill="#e9d5ff" opacity="0.5"/>
  <!-- Smaller logos on top tier sides -->
  <use href="#agwIcon" x="670" y="460" width="28" height="32" fill="#d8b4fe" opacity="0.35"/>
  <use href="#agwIcon" x="902" y="465" width="28" height="32" fill="#d8b4fe" opacity="0.35"/>

  <!-- ========== CANDLE ========== -->
  <!-- Candle body -->
  <rect x="791" y="330" width="18" height="92" rx="4" fill="#e9d5ff"/>
  <!-- Candle stripe -->
  <rect x="791" y="350" width="18" height="6" rx="2" fill="#c084fc" opacity="0.6"/>
  <rect x="791" y="370" width="18" height="6" rx="2" fill="#c084fc" opacity="0.6"/>
  <rect x="791" y="390" width="18" height="6" rx="2" fill="#c084fc" opacity="0.6"/>
  <!-- Wick -->
  <rect x="797" y="318" width="6" height="14" rx="2" fill="#4a3520"/>
  <!-- Flame glow (big soft) -->
  <ellipse cx="800" cy="298" rx="35" ry="40" fill="url(#flameGlow)" filter="url(#bigGl)"/>
  <!-- Flame -->
  <ellipse cx="800" cy="302" rx="10" ry="18" fill="url(#flameGrad)" filter="url(#gl)"/>
  <!-- Flame inner bright -->
  <ellipse cx="800" cy="306" rx="4" ry="8" fill="#fffde0" opacity="0.9"/>

  <!-- ========== FROSTING PEARLS on cake edges ========== -->
  <!-- Bottom tier bottom edge pearls -->
  <g fill="#e9d5ff" opacity="0.6">
    <circle cx="575" cy="692" r="5"/><circle cx="600" cy="694" r="5"/>
    <circle cx="625" cy="692" r="5"/><circle cx="650" cy="694" r="5"/>
    <circle cx="675" cy="692" r="5"/><circle cx="700" cy="694" r="5"/>
    <circle cx="725" cy="692" r="5"/><circle cx="750" cy="694" r="5"/>
    <circle cx="775" cy="692" r="5"/><circle cx="800" cy="694" r="5"/>
    <circle cx="825" cy="692" r="5"/><circle cx="850" cy="694" r="5"/>
    <circle cx="875" cy="692" r="5"/><circle cx="900" cy="694" r="5"/>
    <circle cx="925" cy="692" r="5"/><circle cx="950" cy="694" r="5"/>
    <circle cx="975" cy="692" r="5"/><circle cx="1000" cy="694" r="5"/>
    <circle cx="1025" cy="692" r="5"/>
  </g>
  <!-- Top tier bottom edge pearls -->
  <g fill="#e9d5ff" opacity="0.55">
    <circle cx="660" cy="563" r="4"/><circle cx="682" cy="565" r="4"/>
    <circle cx="704" cy="563" r="4"/><circle cx="726" cy="565" r="4"/>
    <circle cx="748" cy="563" r="4"/><circle cx="770" cy="565" r="4"/>
    <circle cx="792" cy="563" r="4"/><circle cx="814" cy="565" r="4"/>
    <circle cx="836" cy="563" r="4"/><circle cx="858" cy="565" r="4"/>
    <circle cx="880" cy="563" r="4"/><circle cx="902" cy="565" r="4"/>
    <circle cx="924" cy="563" r="4"/><circle cx="940" cy="565" r="4"/>
  </g>

  <!-- ========== BALLOONS ========== -->
  <!-- Left balloons -->
  <!-- Balloon strings -->
  <path d="M 310 540 Q 290 400 280 280" stroke="#c084fc" stroke-width="1.5" fill="none" opacity="0.5"/>
  <path d="M 380 550 Q 370 380 400 240" stroke="#fbbf24" stroke-width="1.5" fill="none" opacity="0.5"/>
  <path d="M 240 560 Q 210 380 190 230" stroke="#34d399" stroke-width="1.5" fill="none" opacity="0.5"/>
  <path d="M 170 580 Q 130 420 145 310" stroke="#f472b6" stroke-width="1.5" fill="none" opacity="0.5"/>
  <!-- Purple balloon -->
  <ellipse cx="280" cy="260" rx="55" ry="65" fill="#9333ea" filter="url(#shadow)"/>
  <ellipse cx="270" cy="240" rx="18" ry="22" fill="#a855f7" opacity="0.4"/>
  <polygon points="280,325 274,332 286,332" fill="#7c3aed"/>
  <!-- Gold balloon -->
  <ellipse cx="400" cy="220" rx="50" ry="60" fill="#f59e0b" filter="url(#shadow)"/>
  <ellipse cx="390" cy="202" rx="16" ry="20" fill="#fbbf24" opacity="0.4"/>
  <polygon points="400,280 394,287 406,287" fill="#d97706"/>
  <!-- Green balloon -->
  <ellipse cx="190" cy="210" rx="48" ry="58" fill="#10b981" filter="url(#shadow)"/>
  <ellipse cx="182" cy="194" rx="15" ry="19" fill="#34d399" opacity="0.4"/>
  <polygon points="190,268 184,275 196,275" fill="#059669"/>
  <!-- Pink balloon -->
  <ellipse cx="145" cy="290" rx="45" ry="55" fill="#ec4899" filter="url(#shadow)"/>
  <ellipse cx="137" cy="274" rx="14" ry="18" fill="#f472b6" opacity="0.4"/>
  <polygon points="145,345 139,352 151,352" fill="#db2777"/>

  <!-- Right balloons -->
  <path d="M 1290 540 Q 1310 400 1320 280" stroke="#c084fc" stroke-width="1.5" fill="none" opacity="0.5"/>
  <path d="M 1220 550 Q 1230 380 1200 240" stroke="#fbbf24" stroke-width="1.5" fill="none" opacity="0.5"/>
  <path d="M 1360 560 Q 1390 380 1410 230" stroke="#34d399" stroke-width="1.5" fill="none" opacity="0.5"/>
  <path d="M 1430 580 Q 1470 420 1455 310" stroke="#f472b6" stroke-width="1.5" fill="none" opacity="0.5"/>
  <!-- Purple balloon right -->
  <ellipse cx="1320" cy="260" rx="55" ry="65" fill="#9333ea" filter="url(#shadow)"/>
  <ellipse cx="1330" cy="240" rx="18" ry="22" fill="#a855f7" opacity="0.4"/>
  <polygon points="1320,325 1314,332 1326,332" fill="#7c3aed"/>
  <!-- Gold balloon right -->
  <ellipse cx="1200" cy="220" rx="50" ry="60" fill="#f59e0b" filter="url(#shadow)"/>
  <ellipse cx="1210" cy="202" rx="16" ry="20" fill="#fbbf24" opacity="0.4"/>
  <polygon points="1200,280 1194,287 1206,287" fill="#d97706"/>
  <!-- Green balloon right -->
  <ellipse cx="1410" cy="210" rx="48" ry="58" fill="#10b981" filter="url(#shadow)"/>
  <ellipse cx="1418" cy="194" rx="15" ry="19" fill="#34d399" opacity="0.4"/>
  <polygon points="1410,268 1404,275 1416,275" fill="#059669"/>
  <!-- Pink balloon right -->
  <ellipse cx="1455" cy="290" rx="45" ry="55" fill="#ec4899" filter="url(#shadow)"/>
  <ellipse cx="1463" cy="274" rx="14" ry="18" fill="#f472b6" opacity="0.4"/>
  <polygon points="1455,345 1449,352 1461,352" fill="#db2777"/>

  <!-- ========== PARTY HATS ========== -->
  <!-- Left party hat -->
  <polygon points="440,700 490,520 540,700" fill="#7734be" opacity="0.7"/>
  <circle cx="490" cy="518" r="8" fill="#fbbf24"/>
  <rect x="440" y="692" width="100" height="10" rx="5" fill="#a78bfa" opacity="0.6"/>
  <line x1="466" y1="695" x2="480" y2="580" stroke="#fbbf24" stroke-width="1.5" opacity="0.4"/>
  <line x1="515" y1="695" x2="500" y2="580" stroke="#34d399" stroke-width="1.5" opacity="0.4"/>

  <!-- Right party hat -->
  <polygon points="1060,700 1110,520 1160,700" fill="#7734be" opacity="0.7"/>
  <circle cx="1110" cy="518" r="8" fill="#fbbf24"/>
  <rect x="1060" y="692" width="100" height="10" rx="5" fill="#a78bfa" opacity="0.6"/>
  <line x1="1086" y1="695" x2="1100" y2="580" stroke="#f472b6" stroke-width="1.5" opacity="0.4"/>
  <line x1="1135" y1="695" x2="1120" y2="580" stroke="#fbbf24" stroke-width="1.5" opacity="0.4"/>

  <!-- ========== PARTY HORNS ========== -->
  <!-- Left horn -->
  <rect x="100" y="640" width="80" height="22" rx="11" fill="#fbbf24" transform="rotate(-30 140 651)" opacity="0.8"/>
  <circle cx="99" cy="625" r="18" fill="#f472b6" opacity="0.6"/>
  <circle cx="99" cy="625" r="12" fill="#ec4899" opacity="0.5"/>
  <!-- Right horn -->
  <rect x="1420" y="640" width="80" height="22" rx="11" fill="#fbbf24" transform="rotate(30 1460 651)" opacity="0.8"/>
  <circle cx="1501" cy="625" r="18" fill="#34d399" opacity="0.6"/>
  <circle cx="1501" cy="625" r="12" fill="#10b981" opacity="0.5"/>

  <!-- ========== CONFETTI — dense celebration ========== -->
  <!-- Purple confetti dots -->
  <circle cx="120" cy="100" r="4" fill="#c084fc" opacity="0.7"/>
  <circle cx="250" cy="60" r="3" fill="#a855f7" opacity="0.6"/>
  <circle cx="480" cy="80" r="3.5" fill="#d8b4fe" opacity="0.65"/>
  <circle cx="600" cy="50" r="3" fill="#9333ea" opacity="0.55"/>
  <circle cx="700" cy="75" r="4" fill="#c084fc" opacity="0.5"/>
  <circle cx="900" cy="55" r="3" fill="#a855f7" opacity="0.55"/>
  <circle cx="1000" cy="80" r="3.5" fill="#d8b4fe" opacity="0.6"/>
  <circle cx="1120" cy="60" r="4" fill="#c084fc" opacity="0.65"/>
  <circle cx="1350" cy="100" r="3" fill="#9333ea" opacity="0.6"/>
  <circle cx="1480" cy="70" r="3.5" fill="#a855f7" opacity="0.55"/>

  <!-- Gold confetti dots -->
  <circle cx="160" cy="180" r="3.5" fill="#fbbf24" opacity="0.65"/>
  <circle cx="340" cy="140" r="3" fill="#f59e0b" opacity="0.55"/>
  <circle cx="520" cy="190" r="4" fill="#fbbf24" opacity="0.5"/>
  <circle cx="1080" cy="140" r="3" fill="#f59e0b" opacity="0.55"/>
  <circle cx="1250" cy="180" r="3.5" fill="#fbbf24" opacity="0.6"/>
  <circle cx="1440" cy="160" r="4" fill="#f59e0b" opacity="0.5"/>

  <!-- Green confetti dots -->
  <circle cx="100" cy="350" r="3" fill="#34d399" opacity="0.5"/>
  <circle cx="320" cy="310" r="3.5" fill="#10b981" opacity="0.45"/>
  <circle cx="1280" cy="340" r="3" fill="#34d399" opacity="0.5"/>
  <circle cx="1500" cy="310" r="3.5" fill="#10b981" opacity="0.45"/>

  <!-- Pink confetti dots -->
  <circle cx="220" cy="420" r="3" fill="#f472b6" opacity="0.5"/>
  <circle cx="440" cy="350" r="3.5" fill="#ec4899" opacity="0.45"/>
  <circle cx="1160" cy="400" r="3" fill="#f472b6" opacity="0.5"/>
  <circle cx="1380" cy="350" r="3.5" fill="#ec4899" opacity="0.45"/>

  <!-- Confetti rectangles (rotated bars) scattered everywhere -->
  <rect x="130" y="130" width="16" height="5" rx="2.5" fill="#c084fc" opacity="0.6" transform="rotate(35 138 133)"/>
  <rect x="300" y="100" width="14" height="4.5" rx="2" fill="#fbbf24" opacity="0.55" transform="rotate(-50 307 102)"/>
  <rect x="420" y="130" width="15" height="5" rx="2.5" fill="#34d399" opacity="0.5" transform="rotate(20 428 133)"/>
  <rect x="550" y="100" width="13" height="4" rx="2" fill="#f472b6" opacity="0.5" transform="rotate(-65 557 102)"/>
  <rect x="680" y="140" width="16" height="5" rx="2.5" fill="#c084fc" opacity="0.45" transform="rotate(45 688 143)"/>
  <rect x="950" y="100" width="14" height="4.5" rx="2" fill="#fbbf24" opacity="0.55" transform="rotate(-35 957 102)"/>
  <rect x="1050" y="130" width="15" height="5" rx="2.5" fill="#34d399" opacity="0.45" transform="rotate(55 1058 133)"/>
  <rect x="1200" y="100" width="13" height="4" rx="2" fill="#f472b6" opacity="0.5" transform="rotate(-20 1207 102)"/>
  <rect x="1350" y="140" width="16" height="5" rx="2.5" fill="#c084fc" opacity="0.5" transform="rotate(70 1358 143)"/>
  <rect x="1500" y="120" width="14" height="4.5" rx="2" fill="#fbbf24" opacity="0.5" transform="rotate(-45 1507 122)"/>

  <!-- Mid-height confetti bars -->
  <rect x="80" y="480" width="14" height="4.5" rx="2" fill="#a855f7" opacity="0.45" transform="rotate(30 87 482)"/>
  <rect x="200" y="530" width="13" height="4" rx="2" fill="#fbbf24" opacity="0.4" transform="rotate(-55 207 532)"/>
  <rect x="340" y="460" width="15" height="5" rx="2.5" fill="#34d399" opacity="0.4" transform="rotate(40 348 463)"/>
  <rect x="1260" y="480" width="14" height="4.5" rx="2" fill="#f472b6" opacity="0.45" transform="rotate(-30 1267 482)"/>
  <rect x="1400" y="530" width="13" height="4" rx="2" fill="#c084fc" opacity="0.4" transform="rotate(55 1407 532)"/>
  <rect x="1500" y="460" width="15" height="5" rx="2.5" fill="#fbbf24" opacity="0.4" transform="rotate(-40 1508 463)"/>

  <!-- Bottom confetti bars -->
  <rect x="120" y="750" width="14" height="4.5" rx="2" fill="#c084fc" opacity="0.4" transform="rotate(25 127 752)"/>
  <rect x="280" y="780" width="13" height="4" rx="2" fill="#fbbf24" opacity="0.35" transform="rotate(-45 287 782)"/>
  <rect x="400" y="760" width="15" height="5" rx="2.5" fill="#f472b6" opacity="0.35" transform="rotate(60 408 763)"/>
  <rect x="1200" y="750" width="14" height="4.5" rx="2" fill="#34d399" opacity="0.35" transform="rotate(-25 1207 752)"/>
  <rect x="1320" y="780" width="13" height="4" rx="2" fill="#c084fc" opacity="0.4" transform="rotate(45 1327 782)"/>
  <rect x="1460" y="760" width="15" height="5" rx="2.5" fill="#fbbf24" opacity="0.35" transform="rotate(-60 1468 763)"/>

  <!-- Diamond confetti -->
  <polygon points="200,90 206,100 200,110 194,100" fill="#fbbf24" opacity="0.55"/>
  <polygon points="380,70 385,78 380,86 375,78" fill="#c084fc" opacity="0.5"/>
  <polygon points="560,120 565,128 560,136 555,128" fill="#34d399" opacity="0.5"/>
  <polygon points="750,50 755,58 750,66 745,58" fill="#f472b6" opacity="0.45"/>
  <polygon points="860,90 865,98 860,106 855,98" fill="#fbbf24" opacity="0.5"/>
  <polygon points="1040,70 1045,78 1040,86 1035,78" fill="#c084fc" opacity="0.55"/>
  <polygon points="1170,110 1175,118 1170,126 1165,118" fill="#34d399" opacity="0.45"/>
  <polygon points="1300,60 1305,68 1300,76 1295,68" fill="#f472b6" opacity="0.5"/>
  <polygon points="1450,100 1455,108 1450,116 1445,108" fill="#fbbf24" opacity="0.5"/>
  <!-- Mid diamonds -->
  <polygon points="90,560 95,568 90,576 85,568" fill="#c084fc" opacity="0.4"/>
  <polygon points="350,550 355,558 350,566 345,558" fill="#fbbf24" opacity="0.4"/>
  <polygon points="1250,560 1255,568 1250,576 1245,568" fill="#f472b6" opacity="0.4"/>
  <polygon points="1510,550 1515,558 1510,566 1505,558" fill="#34d399" opacity="0.4"/>

  <!-- Curly streamers (wavy lines) -->
  <path d="M 150 200 Q 160 215 150 230 Q 140 245 150 260 Q 160 275 150 290" stroke="#c084fc" stroke-width="2" fill="none" opacity="0.35"/>
  <path d="M 470 180 Q 480 195 470 210 Q 460 225 470 240 Q 480 255 470 270" stroke="#fbbf24" stroke-width="2" fill="none" opacity="0.35"/>
  <path d="M 1130 200 Q 1120 215 1130 230 Q 1140 245 1130 260 Q 1120 275 1130 290" stroke="#34d399" stroke-width="2" fill="none" opacity="0.35"/>
  <path d="M 1450 180 Q 1440 195 1450 210 Q 1460 225 1450 240 Q 1440 255 1450 270" stroke="#f472b6" stroke-width="2" fill="none" opacity="0.35"/>
  <path d="M 80 600 Q 90 615 80 630 Q 70 645 80 660" stroke="#fbbf24" stroke-width="2" fill="none" opacity="0.3"/>
  <path d="M 1520 600 Q 1510 615 1520 630 Q 1530 645 1520 660" stroke="#c084fc" stroke-width="2" fill="none" opacity="0.3"/>

  <!-- ========== SPARKLE STARS ========== -->
  <!-- 4-pointed stars near flame -->
  <g fill="#fbbf24" opacity="0.7">
    <polygon points="750,280 753,288 761,288 755,293 757,301 750,296 743,301 745,293 739,288 747,288"/>
    <polygon points="860,290 862,296 868,296 864,300 865,306 860,302 855,306 856,300 852,296 858,296"/>
  </g>
  <!-- Sparkle stars scattered -->
  <g fill="#fbbf24" opacity="0.5">
    <polygon points="350,200 352,206 358,206 354,210 355,216 350,212 345,216 346,210 342,206 348,206"/>
    <polygon points="1250,200 1252,206 1258,206 1254,210 1255,216 1250,212 1245,216 1246,210 1242,206 1248,206"/>
  </g>
  <g fill="#e9d5ff" opacity="0.4">
    <polygon points="500,320 502,326 508,326 504,330 505,336 500,332 495,336 496,330 492,326 498,326"/>
    <polygon points="1100,320 1102,326 1108,326 1104,330 1105,336 1100,332 1095,336 1096,330 1092,326 1098,326"/>
  </g>

  <!-- ========== BOTTOM TEXT ========== -->
  <text x="800" y="790" font-family="'Inter', 'Segoe UI', Arial, sans-serif" font-weight="600" font-size="22" text-anchor="middle" fill="#d8b4fe" letter-spacing="5" opacity="0.7">OPEN SOURCE • COMMUNITY-DRIVEN</text>

  <!-- ========== BOTTOM BANNER ========== -->
  <path d="M 450 830 L 430 830 L 415 850 L 430 870 L 450 870" fill="#5b21b6" opacity="0.7"/>
  <rect x="450" y="830" width="700" height="40" rx="0" fill="#7734be" opacity="0.8"/>
  <path d="M 1150 830 L 1170 830 L 1185 850 L 1170 870 L 1150 870" fill="#5b21b6" opacity="0.7"/>
  <text x="800" y="858" font-family="'Inter', 'Segoe UI', Arial, sans-serif" font-weight="500" font-size="17" text-anchor="middle" fill="white" letter-spacing="4" opacity="0.9">1M PULLS  •  179 CONTRIBUTORS  •  2,000+ STARS</text>

</svg>